<svg height="512pt" viewBox="-31 0 512 512.00245" width="512pt" xmlns="http://www.w3.org/2000/svg"><path d="m424.265625 460.0625c0 .699219-.019531 1.398438-.0625 2.085938-1.09375 21.199218-17.199219 38.765624-38.449219 41.527343-40.726562 1.054688-21.433594 1.46875-86.90625-2.339843 0 0 .011719 0 .011719-.007813l-16.371094 2.347656c-90.976562 5.308594-156.207031-24.46875-205.089843-56.671875-43.554688-28.683594-69.800782-77.300781-69.800782-129.445312v-91.617188c0-16.761718 14.304688-30.597656 31.988282-28.9375 81.265624 8.945313 113.070312 71.457032 126.804687 84.222656l3.007813 1.660157c15.253906 0 62.347656 3.742187 87.554687 19.050781 5.296875 3.210938 26.589844 14.789062 34.542969 37.761719 1.101562 3.171875 5.539062 3.027343 6.289062.253906 8.09375-32.847656 47.25-86.753906 58.929688-166.226563.34375-.761718 2.289062-10.859374.101562-22.851562-1.0625-6.675781-4.507812-17.382812-6.199218-25.828125-47.425782-8.5-49.1875-10.929687-60.390626-19.285156-2.207031-1.652344-5.132812-2.007813-7.65625-.921875-40.515624 17.421875-46.703124-2.554688-46.703124-2.554688-12.367188-41.648437-12.175782-34.285156-11.113282-58.300781.050782-.921875.140625-1.835937.3125-2.714844 1.308594-7.515625 6.675782-13.785156 14.070313-16.175781 18.890625-6.128906 50.910156-14.445312 61.167969-17.078125 2.464843-.628906 5.046874-.558594 7.457031.234375 24.886719 8.203125 88.859375 54.855469 88.859375 54.855469 14.769531 11.996093 24.605468 29.386719 26.175781 52.722656 6.652344 99.222656 18.078125 112.1875 19.144531 172.578125 1.214844 69.425781-17.515625 136.476562-17.675781 171.65625zm0 0" fill="#f2bb88"/><path d="m424.265625 460.0625c0 .699219-.019531 1.398438-.0625 2.085938-40.675781 1.054687-21.410156 1.46875-86.863281-2.339844 0 0 .007812 0 .007812-.011719l-16.367187 2.351563c-90.980469 5.308593-156.210938-24.472657-205.09375-56.671876-43.554688-28.683593-69.796875-77.304687-69.796875-129.449218v-78.164063c76.6875 11.609375 106.789062 70.800781 120.300781 83.363281l3.007813 1.660157c15.253906 0 62.347656 3.742187 87.554687 19.050781 5.296875 3.210938 26.589844 14.789062 34.542969 37.761719 1.101562 3.171875 5.539062 3.027343 6.289062.253906 8.09375-32.847656 47.25-86.753906 58.929688-166.226563.34375-.761718 2.289062-10.859374.101562-22.851562-1.0625-6.675781-4.507812-17.382812-6.199218-25.828125-47.425782-8.5-49.1875-10.929687-60.390626-19.285156-2.207031-1.652344-5.132812-2.007813-7.65625-.921875-40.515624 17.421875-46.703124-2.554688-46.703124-2.554688-12.367188-41.648437-12.175782-34.285156-11.113282-58.300781.050782-.921875.140625-1.835937.3125-2.714844 1.308594-7.515625 6.675782-13.785156 14.070313-16.175781 18.890625-6.128906 50.910156-14.445312 61.167969-17.078125 2.464843-.628906 5.046874-.558594 7.457031.234375 24.886719 8.203125 88.859375 54.855469 88.859375 54.855469 14.769531 11.996093 24.605468 29.386719 26.175781 52.722656 6.652344 99.222656 18.078125 112.1875 19.144531 172.578125 1.214844 69.425781-17.515625 136.476562-17.675781 171.65625zm0 0" fill="#f2d1a5"/><path d="m79.621094 439.351562c-40.34375-27.503906-64.425782-73.035156-64.425782-121.792968v-91.617188c0-12.464844 10.660157-22.527344 23.390626-21.398437 84.582031 7.5 112.261718 81.515625 128.984374 85.714843 2.519532.628907 55.441407.320313 86.539063 18.828126 5.839844 3.472656 23.609375 14.039062 30.214844 33.105468 3.578125 10.296875 18.304687 9.71875 20.839843-.417968 5.21875-21.195313 25.203126-53.734376 41.050782-97.121094 1.441406-3.941406-.585938-8.304688-4.527344-9.742188-3.945312-1.4375-8.304688.585938-9.742188 4.527344-13.402343 36.6875-29.746093 65.148438-37.972656 87.371094-22.316406-39.507813-76.9375-49.734375-122.480468-51.449219l-.535157-.296875c-11.699219-11.835938-49.578125-78.445312-131.027343-85.652344-21.675782-1.917968-39.929688 15.222656-39.929688 36.535156v91.613282c0 53.789062 26.566406 104.011718 71.0625 134.347656 3.472656 2.367188 8.195312 1.464844 10.558594-1.996094 2.363281-3.46875 1.46875-8.195312-2-10.558594zm0 0"/><path d="m449.53125 288.277344c-1.070312-61.242188-12.519531-74.070313-19.152344-172.964844-1.761718-26.132812-14.417968-47.613281-29.277344-58.34375-2.648437-1.933594-65.234374-47.460938-90.964843-55.933594-3.757813-1.242187-7.855469-1.367187-11.714844-.375-9.59375 2.460938-42.402344 10.972656-61.617187 17.207032-10.027344 3.242187-17.382813 11.683593-19.210938 22.035156-.582031 3.09375-.886719 14.460937-.886719 16.894531 0 11.816406 2.375 15.640625 11.902344 47.734375 1.730469 5.585938 9.105469 15.035156 25.761719 15.035156 8.6875 0 19.414062-2.726562 31.28125-7.800781.011718.027344.023437.050781.035156.078125 12.414062 9.304688 16.046875 12.011719 58.621094 19.777344 3.011718 12.457031 5.933594 20.015625 5.933594 30.820312 0 8.675782-4.757813 32.609375-9.1875 48.65625-1.117188 4.046875 1.257812 8.230469 5.300781 9.347656 4.046875 1.117188 8.226562-1.257812 9.34375-5.300781 3.664062-13.277343 6.515625-26.691406 8.472656-39.886719 4.644531-18.039062-3.425781-38.308593-6.101563-51.703124-.613281-3.0625-3.035156-5.4375-6.109374-5.988282-43.785157-7.84375-46.832032-10.132812-55.886719-16.925781-5.144531-3.851563-10.519531-5.351563-16.503907-2.777344-10.050781 4.320313-18.527343 6.511719-25.195312 6.511719-8.695312 0-10.941406-3.769531-11.3125-4.546875-9.363281-31.527344-11.164062-33.96875-11.164062-43.027344 0-2.363281.316406-12.046875.652343-14.226562.839844-4.8125 4.261719-8.738281 8.9375-10.253907 18.800781-6.097656 51.21875-14.507812 60.710938-16.941406 10.5625-2.714844 80.40625 46.9375 89.789062 53.746094 14.078125 11.503906 21.894531 27.382812 23.230469 47.207031 6.886719 102.652344 19.179688 115.5625 19.179688 178.664063 0 66.316406-17.5625 130.054687-17.726563 165.023437-.09375 18.109375-13.621094 33.550781-31.527344 36.070313-32.910156.859375-25.761719 1.277344-58.398437-.695313-35.460938-2.148437-23.523438-2.375-45.019532.71875-63.753906 3.648438-121.375-9.722656-176.792968-41.125-3.648438-2.066406-8.285156-.785156-10.355469 2.863281-2.066406 3.652344-.785156 8.285157 2.867187 10.355469 51.878907 29.394531 105.558594 43.683594 164.109376 43.683594 45.558593 0 10.898437-4.566406 64.273437-1.332031 33.335937 2.019531 26.421875 1.585937 60.121094.710937 19.027343-.433593 45.757812-20.425781 45.917969-51.175781.15625-34.042969 18.898437-101.921875 17.664062-171.816406zm0 0"/></svg>