<svg height="480pt" viewBox="0 0 480 480.00001" width="480pt" xmlns="http://www.w3.org/2000/svg"><path d="m8 8h464v48h-464zm0 0" fill="#7d8d9c"/><path d="m96 56h48v144h-48zm0 0" fill="#5a6470"/><path d="m336 56h48v192h-48zm0 0" fill="#5a6470"/><g fill="#87cee9"><path d="m168 456c-4.164062-.015625-7.617188-3.21875-7.945312-7.371094-.328126-4.148437 2.582031-7.855468 6.6875-8.523437 34.097656-5.457031 41.371093-25.722657 41.65625-26.585938 1.414062-4.15625 5.902343-6.414062 10.082031-5.070312 4.15625 1.328125 6.460937 5.765625 5.160156 9.933593-.382813 1.242188-9.984375 30.402344-54.402344 37.511719-.40625.070313-.824219.105469-1.238281.105469zm0 0"/><path d="m184 480c-4.164062-.015625-7.617188-3.21875-7.945312-7.371094-.328126-4.148437 2.582031-7.855468 6.6875-8.523437 34.097656-5.457031 41.371093-25.722657 41.65625-26.585938 1.414062-4.15625 5.902343-6.414062 10.082031-5.070312 4.15625 1.328125 6.460937 5.765625 5.160156 9.933593-.382813 1.242188-9.984375 30.402344-54.402344 37.511719-.40625.070313-.824219.105469-1.238281.105469zm0 0"/><path d="m258.167969 264.078125c-.648438.003906-1.296875-.074219-1.929688-.238281-4.242187-1.035156-6.855469-5.300782-5.847656-9.550782.296875-1.265624 7.824219-31.050781 51.609375-41.226562 4.21875-.792969 8.308594 1.882812 9.277344 6.0625.964844 4.179688-1.539063 8.378906-5.675782 9.515625-33.601562 7.832031-39.457031 28.550781-39.699218 29.429687-.925782 3.519532-4.09375 5.980469-7.734375 6.007813zm0 0"/><path d="m240.519531 241.257812c-2.429687-.011718-4.722656-1.125-6.234375-3.027343-1.511718-1.902344-2.074218-4.390625-1.53125-6.757813.292969-1.273437 7.820313-31.046875 51.605469-41.234375 4.304687-1.003906 8.609375 1.671875 9.613281 5.972657 1.003906 4.304687-1.667968 8.609374-5.972656 9.613281-33.601562 7.824219-39.464844 28.550781-39.695312 29.421875-.933594 3.539062-4.128907 6.003906-7.785157 6.011718zm0 0"/></g><path d="m120 192c-61.855469 0-112 50.144531-112 112s50.144531 112 112 112 112-50.144531 112-112-50.144531-112-112-112zm0 192c-44.183594 0-80-35.816406-80-80s35.816406-80 80-80 80 35.816406 80 80-35.816406 80-80 80zm0 0" fill="#2d75bb"/><path d="m360 240c-61.855469 0-112 50.144531-112 112s50.144531 112 112 112 112-50.144531 112-112-50.144531-112-112-112zm0 192c-44.183594 0-80-35.816406-80-80s35.816406-80 80-80 80 35.816406 80 80-35.816406 80-80 80zm0 0" fill="#2d75bb"/><path d="m32 304c0 48.601562 39.398438 88 88 88s88-39.398438 88-88-39.398438-88-88-88c-48.578125.058594-87.941406 39.421875-88 88zm160 0c0 39.765625-32.234375 72-72 72s-72-32.234375-72-72 32.234375-72 72-72c39.746094.042969 71.957031 32.253906 72 72zm0 0"/><path d="m272 352c0 48.601562 39.398438 88 88 88s88-39.398438 88-88-39.398438-88-88-88c-48.578125.058594-87.941406 39.421875-88 88zm160 0c0 39.765625-32.234375 72-72 72s-72-32.234375-72-72 32.234375-72 72-72c39.746094.042969 71.957031 32.253906 72 72zm0 0"/><path d="m472 0h-464c-4.417969 0-8 3.582031-8 8v48c0 4.417969 3.582031 8 8 8h80v124.464844c-57.859375 16.007812-94.988281 72.3125-86.910156 131.800781s58.875 103.851563 118.910156 103.851563 110.832031-44.363282 118.910156-103.851563-29.050781-115.792969-86.910156-131.800781v-124.464844h176v172.464844c-57.859375 16.007812-94.988281 72.3125-86.910156 131.800781s58.875 103.851563 118.910156 103.851563 110.832031-44.363282 118.910156-103.851563-29.050781-115.792969-86.910156-131.800781v-172.464844h80c4.417969 0 8-3.582031 8-8v-48c0-4.417969-3.582031-8-8-8zm-248 304c0 57.4375-46.5625 104-104 104s-104-46.5625-104-104 46.5625-104 104-104c57.410156.066406 103.933594 46.589844 104 104zm-88-118.808594c-5.300781-.753906-10.644531-1.152344-16-1.191406-5.355469.039062-10.699219.4375-16 1.191406v-121.191406h32zm328 166.808594c0 57.4375-46.5625 104-104 104s-104-46.5625-104-104 46.5625-104 104-104c57.410156.066406 103.933594 46.589844 104 104zm-88-118.808594c-10.609375-1.589844-21.390625-1.589844-32 0v-169.191406h32zm88-185.191406h-448v-32h448zm0 0"/><path d="m223.632812 418.398438c1.300782-4.164063-1.003906-8.601563-5.160156-9.933594-4.183594-1.34375-8.667968.914062-10.082031 5.070312-.285156.863282-7.558594 21.128906-41.65625 26.585938-4.066406.710937-6.925781 4.398437-6.597656 8.515625.328125 4.113281 3.734375 7.304687 7.863281 7.363281.425781 0 .851562-.035156 1.273438-.105469 44.375-7.09375 53.972656-36.269531 54.359374-37.496093zm0 0"/><path d="m234.472656 432.449219c-4.183594-1.34375-8.667968.914062-10.082031 5.070312-.285156.863281-7.558594 21.128907-41.65625 26.585938-4.109375.667969-7.019531 4.378906-6.6875 8.527343.328125 4.152344 3.789063 7.355469 7.953125 7.367188.425781 0 .851562-.035156 1.273438-.105469 44.382812-7.09375 53.984374-36.269531 54.398437-37.511719 1.300781-4.179687-1.027344-8.621093-5.199219-9.933593zm0 0"/><path d="m250.398438 254.289062c-1.007813 4.25 1.605468 8.515626 5.847656 9.550782.632812.164062 1.28125.242187 1.929687.238281 3.648438-.015625 6.832031-2.480469 7.761719-6.007813.238281-.878906 6.0625-21.597656 39.695312-29.429687 4.175782-1.113281 6.710938-5.335937 5.734376-9.542969-.980469-4.207031-5.121094-6.878906-9.359376-6.035156-43.792968 10.175781-51.320312 39.960938-51.609374 41.226562zm0 0"/><path d="m284.359375 190.238281c-43.785156 10.1875-51.3125 39.960938-51.605469 41.234375-.542968 2.367188.019532 4.855469 1.53125 6.757813 1.511719 1.902343 3.804688 3.015625 6.234375 3.027343 3.652344-.015624 6.835938-2.480468 7.769531-6.011718.230469-.871094 6.0625-21.597656 39.695313-29.421875 4.285156-1.019531 6.941406-5.304688 5.945313-9.597657-1-4.289062-5.277344-6.964843-9.570313-5.988281zm0 0"/></svg>