<svg height="464pt" viewBox="0 -48 464 464" width="464pt" xmlns="http://www.w3.org/2000/svg"><path d="m376 114.277344c0 17.675781-14.328125 32-32 32s-32-14.324219-32-32c0-17.671875 14.328125-32 32-32s32 14.328125 32 32zm0 0" fill="#ffd782"/><path d="m336 202.261719-93.441406 60.640625c-3.519532.53125-7.078125.800781-10.636719.800781-37.28125 0-37.28125-26.882813-74.640625-26.882813-2.59375-.011718-5.1875.148438-7.761719.480469l-13.519531-19.039062 43.121094-35.917969 52.878906-44.082031-29.519531-35.359375c-2.769531-3.308594-4.085938-7.597656-3.648438-11.890625s2.589844-8.226563 5.96875-10.910157l87.359375-69.359374c2.886719-2.089844 6.359375-3.207032 9.917969-3.199219 7.34375-.027344 13.894531 4.605469 16.3125 11.539062 2.421875 6.929688.175781 14.632813-5.589844 19.179688l-72.800781 60 74.238281 80.402343zm0 0" fill="#ffd782"/><path d="m456 186.261719v50.558593c-37.359375 0-37.359375 26.882813-74.71875 26.882813s-37.359375-26.882813-74.722656-26.882813c-33.359375 0-36.878906 21.523438-64 26.082032-3.519532.53125-7.078125.800781-10.636719.800781-37.28125 0-37.28125-26.882813-74.640625-26.882813-2.59375-.011718-5.1875.148438-7.761719.480469-29.839843 3.363281-32.398437 26.402344-66.878906 26.402344-37.359375 0-37.359375-26.882813-74.640625-26.882813v-50.558593c37.28125 0 37.28125 18.878906 74.640625 18.878906s37.28125-26.878906 74.640625-26.878906c7.484375-.175781 14.921875 1.210937 21.839844 4.082031 17.757812 7.519531 24.640625 22.796875 52.800781 22.796875 37.359375 0 37.359375-26.878906 74.636719-26.878906 2.566406.003906 5.128906.140625 7.679687.402343 29.921875 3.4375 32.402344 26.476563 67.042969 26.476563 37.359375 0 37.359375-18.878906 74.71875-18.878906zm0 0" fill="#7fcac9"/><path d="m456 282.277344c-37.351562 0-37.351562 29.441406-74.703125 29.441406s-37.34375-26.878906-74.695313-26.878906c-37.355468 0-37.328124 26.878906-74.648437 26.878906s-37.34375-26.878906-74.679687-26.878906c-37.335938 0-37.320313 26.878906-74.640626 26.878906-37.320312 0-37.320312-29.441406-74.632812-29.441406v48c37.3125 0 37.3125 29.441406 74.632812 29.441406 37.320313 0 37.320313-26.878906 74.640626-26.878906 37.320312 0 37.335937 26.878906 74.679687 26.878906s37.320313-26.878906 74.648437-26.878906c37.328126 0 37.351563 26.878906 74.695313 26.878906s37.351563-29.441406 74.703125-29.441406zm0 0" fill="#7fcac9"/><path d="m168 130.277344c-2.121094.007812-4.160156-.835938-5.65625-2.34375-14.464844-14.457032-20.488281-29.238282-17.886719-43.945313 4.566407-25.941406 34.871094-40.359375 36.160157-40.957031 4-1.875 8.765624-.148438 10.640624 3.855469 1.871094 4.003906.144532 8.765625-3.859374 10.640625-.238282.109375-24.109376 11.558594-27.199219 29.285156-1.597657 9.242188 2.921875 19.273438 13.457031 29.808594 2.285156 2.289062 2.972656 5.730468 1.734375 8.71875-1.238281 2.988281-4.15625 4.9375-7.390625 4.9375zm0 0" fill="#aabece"/><path d="m136 138.277344c-2.335938 0-4.550781-1.019532-6.070312-2.792969-15.554688-18.140625-21.992188-36.796875-19.121094-55.542969 4.902344-32.078125 35.648437-51.632812 36.953125-52.445312 3.753906-2.347656 8.699219-1.207032 11.046875 2.550781 2.34375 3.753906 1.203125 8.703125-2.550782 11.046875-.265624.160156-25.914062 16.609375-29.65625 41.402344-1.441406 15.796875 4.230469 31.417968 15.46875 42.613281 2.011719 2.375 2.460938 5.695313 1.160157 8.519531-1.300781 2.824219-4.121094 4.636719-7.230469 4.648438zm0 0" fill="#aabece"/><path d="m8 244.839844c11.976562-.183594 23.597656 4.066406 32.632812 11.925781 11.753907 9.851563 26.65625 15.15625 41.992188 14.953125 15.335938.203125 30.242188-5.101562 42-14.953125 18.863281-15.90625 46.445312-15.90625 65.3125 0 24.453125 19.925781 59.542969 19.925781 84 0 18.871094-15.902344 46.453125-15.902344 65.328125 0 24.46875 19.933594 59.574219 19.933594 84.046875 0 9.054688-7.863281 20.695312-12.109375 32.6875-11.925781 4.417969 0 8-3.582032 8-8v-50.5625c0-4.417969-3.582031-8-8-8-14.332031-.308594-28.480469 3.25-40.960938 10.304687-10.234374 5.929688-21.917968 8.890625-33.742187 8.558594-11.992187.183594-23.628906-4.066406-32.679687-11.933594-8.792969-7.148437-19.25-11.953125-30.402344-13.96875l-66.621094-72.183593 66.09375-54.527344c10.339844-8.636719 12.054688-23.878906 3.894531-34.59375-8.160156-10.71875-23.304687-13.121094-34.382812-5.457032l-87.351563 69.355469c-5.0625 4.019531-8.289062 9.910157-8.949218 16.339844-.660157 6.429687 1.300781 12.851563 5.4375 17.816406l24.398437 29.265625-43.199219 36c-6.5625-2.042968-13.40625-3.042968-20.277344-2.960937-15.328124-.203125-30.222656 5.09375-41.976562 14.929687-9.046875 7.859375-20.675781 12.105469-32.65625 11.917969-11.8125.332031-23.484375-2.628906-33.703125-8.558594-12.46875-7.050781-26.601563-10.613281-40.921875-10.304687-4.417969 0-8 3.582031-8 8v50.5625c0 4.417968 3.582031 8 8 8zm229.128906-100.417969c3.390625-2.828125 3.847656-7.871094 1.023438-11.261719l-29.519532-35.417968c-1.378906-1.65625-2.03125-3.796876-1.808593-5.941407.21875-2.140625 1.296875-4.105469 2.984375-5.441406l86.992187-69.105469c4.09375-2.851562 9.71875-1.917968 12.667969 2.109375 2.949219 4.023438 2.148438 9.667969-1.804688 12.714844l-72.800781 60c-1.699219 1.398437-2.746093 3.433594-2.898437 5.628906-.152344 2.195313.609375 4.355469 2.097656 5.972657l62.160156 67.34375c-11.628906 1.835937-22.566406 6.726562-31.6875 14.175781-18.867187 15.910156-46.453125 15.910156-65.320312 0-1.933594-1.394531-3.949219-2.808594-6.0625-4.210938zm-154.503906 68.71875c15.335938.207031 30.242188-5.097656 42-14.949219 18.863281-15.910156 46.445312-15.910156 65.3125 0 24.453125 19.925782 59.542969 19.925782 84 0 18.867188-15.910156 46.457031-15.910156 65.328125 0 11.769531 9.847656 26.683594 15.15625 42.03125 14.949219 14.328125.308594 28.476563-3.25 40.960937-10.292969 7.902344-4.523437 16.679688-7.308594 25.742188-8.175781v34.597656c-12.503906 1.457031-24.316406 6.496094-34.023438 14.511719-18.878906 15.917969-46.480468 15.917969-65.359374 0-24.457032-19.917969-59.542969-19.917969-84 0-18.867188 15.910156-46.453126 15.910156-65.320313 0-24.457031-19.921875-59.546875-19.921875-84 0-9.042969 7.867188-20.671875 12.117188-32.65625 11.9375-11.976563.179688-23.597656-4.066406-32.632813-11.929688-9.695312-8.019531-21.507812-13.0625-34.007812-14.519531v-34.597656c9.050781.875 17.8125 3.667969 25.703125 8.191406 12.46875 7.039063 26.605469 10.589844 40.921875 10.277344zm0 0"/><path d="m304 114.277344c0 22.09375 17.910156 40 40 40s40-17.90625 40-40c0-22.089844-17.910156-40-40-40-22.082031.027344-39.972656 17.921875-40 40zm40-24c13.253906 0 24 10.746094 24 24s-10.746094 24-24 24-24-10.746094-24-24 10.746094-24 24-24zm0 0"/><path d="m8 338.277344c12.074219-.082032 23.699219 4.585937 32.359375 13 11.464844 10.6875 26.589844 16.570312 42.265625 16.441406 15.335938.203125 30.242188-5.101562 42-14.953125 18.863281-15.90625 46.445312-15.90625 65.3125 0 24.453125 19.925781 59.542969 19.925781 84 0 18.871094-15.902344 46.453125-15.902344 65.328125 0 11.765625 9.851563 26.675781 15.160156 42.023437 14.953125 15.683594.136719 30.828126-5.746094 42.304688-16.441406 8.675781-8.417969 20.316406-13.085938 32.40625-13 4.417969 0 8-3.582032 8-8v-48c0-4.417969-3.582031-8-8-8-15.6875-.125-30.828125 5.765625-42.304688 16.464844-8.675781 8.414062-20.3125 13.085937-32.398437 13-11.992187.183593-23.628906-4.066407-32.679687-11.9375-24.457032-19.917969-59.542969-19.917969-84 0-18.867188 15.910156-46.453126 15.910156-65.320313 0-24.457031-19.921876-59.546875-19.921876-84 0-9.042969 7.867187-20.671875 12.121093-32.65625 11.9375-12.082031.085937-23.710937-4.582032-32.375-13-11.460937-10.695313-26.589844-16.589844-42.265625-16.464844-4.417969 0-8 3.582031-8 8v48c0 4.417968 3.582031 8 8 8zm74.625-18.558594c15.335938.203125 30.242188-5.101562 42-14.953125 18.863281-15.90625 46.445312-15.90625 65.3125 0 24.453125 19.925781 59.542969 19.925781 84 0 18.871094-15.902344 46.453125-15.902344 65.328125 0 11.765625 9.851563 26.675781 15.160156 42.023437 14.953125 15.683594.136719 30.828126-5.746094 42.304688-16.441406 6.808594-6.332032 15.269531-10.613282 24.40625-12.34375v31.808594c-12.804688 1.683593-24.785156 7.269531-34.304688 16-8.675781 8.414062-20.3125 13.085937-32.398437 13-11.992187.183593-23.628906-4.066407-32.679687-11.9375-24.457032-19.917969-59.542969-19.917969-84 0-18.867188 15.910156-46.453126 15.910156-65.320313 0-24.457031-19.921876-59.546875-19.921876-84 0-9.042969 7.867187-20.671875 12.121093-32.65625 11.9375-12.082031.085937-23.710937-4.582032-32.375-13-9.507813-8.726563-21.472656-14.3125-34.265625-16v-31.808594c9.121094 1.738281 17.566406 6.019531 24.359375 12.34375 11.464844 10.6875 26.589844 16.570312 42.265625 16.441406zm0 0"/><path d="m144.457031 83.988281c-2.601562 14.707031 3.421875 29.488281 17.886719 43.945313 3.140625 3.03125 8.128906 2.988281 11.214844-.097656 3.085937-3.085938 3.128906-8.074219.097656-11.214844-10.535156-10.535156-15.0625-20.566406-13.457031-29.808594 3.089843-17.726562 26.960937-29.175781 27.199219-29.285156 4.003906-1.875 5.730468-6.636719 3.859374-10.640625-1.875-4.003907-6.640624-5.730469-10.640624-3.855469-1.289063.597656-31.59375 15.015625-36.160157 40.957031zm0 0"/><path d="m136 138.277344c3.125 0 5.964844-1.820313 7.269531-4.65625 1.304688-2.839844.835938-6.179688-1.199219-8.550782-11.238281-11.195312-16.910156-26.816406-15.46875-42.617187 3.742188-24.800781 29.390626-41.238281 29.65625-41.398437 3.753907-2.347657 4.894532-7.292969 2.550782-11.046876-2.347656-3.757812-7.292969-4.898437-11.046875-2.554687-1.304688.800781-32.050781 20.367187-36.953125 52.449219-2.871094 18.710937 3.566406 37.398437 19.121094 55.542968 1.511718 1.789063 3.730468 2.824219 6.070312 2.832032zm0 0"/></svg>