<?xml version="1.0" encoding="iso-8859-1"?>
<!-- Generator: Adobe Illustrator 19.0.0, SVG Export Plug-In . SVG Version: 6.00 Build 0)  -->
<svg version="1.1" id="Capa_1" xmlns="http://www.w3.org/2000/svg" xmlns:xlink="http://www.w3.org/1999/xlink" x="0px" y="0px"
	 viewBox="0 0 217.419 217.419" style="enable-background:new 0 0 217.419 217.419;" xml:space="preserve">
<path style="fill:#83D816;" d="M109.227,113.494h-61.44c-3.575,0-6.543-2.758-6.808-6.321l-5.845-78.909
	c-0.391-5.297,1.456-10.566,5.071-14.459c3.613-3.891,8.731-6.124,14.044-6.124h48.521c5.311,0,10.429,2.232,14.044,6.124
	c3.615,3.891,5.461,9.161,5.07,14.459l-5.845,78.909C115.77,110.736,112.802,113.494,109.227,113.494z M54.127,99.841h48.759
	l5.376-72.588c0.114-1.545-0.403-3.023-1.457-4.157c-1.053-1.137-2.488-1.761-4.038-1.761H54.246c-1.55,0-2.985,0.625-4.038,1.761
	c-1.055,1.135-1.574,2.611-1.457,4.157L54.127,99.841z"/>
<path d="M109.227,116.908h-61.44c-5.332,0-9.817-4.164-10.213-9.482l-5.845-78.911c-0.463-6.243,1.715-12.45,5.973-17.034
	c4.256-4.584,10.286-7.214,16.544-7.214h48.521c6.258,0,12.288,2.63,16.544,7.214c4.256,4.582,6.434,10.791,5.973,17.033
	l-5.845,78.911C119.043,112.743,114.558,116.908,109.227,116.908z M54.246,11.094c-4.366,0-8.573,1.835-11.542,5.033
	c-2.971,3.198-4.49,7.53-4.168,11.884l5.845,78.909c0.131,1.773,1.626,3.161,3.405,3.161h61.44c1.778,0,3.272-1.388,3.405-3.162
	l5.845-78.909c0.323-4.354-1.196-8.685-4.166-11.882c-2.97-3.2-7.177-5.033-11.542-5.033H54.246z M102.886,103.254H54.127
	c-1.787,0-3.272-1.379-3.405-3.161l-5.376-72.588c-0.186-2.502,0.652-4.895,2.362-6.733c1.703-1.836,4.026-2.85,6.538-2.85h48.521
	c2.512,0,4.835,1.014,6.542,2.855c1.707,1.835,2.545,4.227,2.359,6.729l-5.376,72.588
	C106.158,101.875,104.675,103.254,102.886,103.254z M57.296,96.428h42.419L104.858,27c0.044-0.596-0.147-1.142-0.555-1.58
	c-0.41-0.442-0.939-0.672-1.538-0.672H54.245c-0.599,0-1.13,0.23-1.534,0.669c-0.41,0.442-0.602,0.988-0.558,1.584L57.296,96.428z"
	/>
<circle style="fill:#777777;" cx="78.502" cy="134.652" r="75.093"/>
<path d="M78.507,213.153C35.219,213.153,0,177.935,0,134.647S35.219,56.14,78.507,56.14s78.507,35.219,78.507,78.507
	S121.795,213.153,78.507,213.153z M78.507,62.967c-39.525,0-71.68,32.155-71.68,71.68s32.155,71.68,71.68,71.68
	s71.68-32.155,71.68-71.68S118.031,62.967,78.507,62.967z"/>
<rect x="80.891" y="147.622" style="fill:#DDDDDD;" width="88.747" height="23.893"/>
<path d="M169.632,174.934H80.886c-1.884,0-3.413-1.529-3.413-3.413v-23.893c0-1.884,1.529-3.413,3.413-3.413h88.747
	c1.884,0,3.413,1.529,3.413,3.413v23.893C173.046,173.407,171.517,174.934,169.632,174.934z M84.299,168.108h81.92v-17.067h-81.92
	V168.108z"/>
<rect x="36.518" y="147.622" style="fill:#DDDDDD;" width="10.24" height="23.893"/>
<path d="M46.752,174.934h-10.24c-1.884,0-3.413-1.529-3.413-3.413v-23.893c0-1.884,1.529-3.413,3.413-3.413h10.24
	c1.884,0,3.413,1.529,3.413,3.413v23.893C50.166,173.407,48.637,174.934,46.752,174.934z M39.926,168.108h3.413v-17.067h-3.413
	V168.108z"/>
<path style="fill:#595959;" d="M76.906,195.414h-9.107c-2.198,0-3.98-1.782-3.98-3.98v-63.72c0-2.198,1.782-3.98,3.98-3.98h9.107
	c2.198,0,3.98,1.782,3.98,3.98v63.72C80.886,193.632,79.104,195.414,76.906,195.414z"/>
<path d="M76.906,198.828h-9.107c-4.077,0-7.393-3.316-7.393-7.393v-63.72c0-4.077,3.316-7.393,7.393-7.393h9.107
	c4.077,0,7.393,3.316,7.393,7.393v63.72C84.299,195.511,80.981,198.828,76.906,198.828z M67.799,127.148
	c-0.312,0-0.567,0.254-0.567,0.567v63.72c0,0.312,0.254,0.567,0.567,0.567h9.107c0.312,0,0.567-0.254,0.567-0.567v-63.72
	c0-0.312-0.254-0.567-0.567-0.567H67.799z"/>
<path style="fill:#777777;" d="M60.474,181.761H50.096c-1.847,0-3.343-1.497-3.343-3.343v-37.685c0-1.847,1.497-3.343,3.343-3.343
	h10.378c1.847,0,3.343,1.497,3.343,3.343v37.685C63.819,180.264,62.322,181.761,60.474,181.761z"/>
<path d="M60.474,185.174H50.096c-3.726,0-6.757-3.031-6.757-6.757v-37.685c0-3.726,3.031-6.757,6.757-6.757h10.378
	c3.726,0,6.757,3.031,6.757,6.757v37.685C67.232,182.143,64.2,185.174,60.474,185.174z M60.406,140.733l-10.31,0.07l0.07,37.617
	l10.24-0.068V140.733z M60.474,178.348h0.017H60.474z"/>
<rect x="203.754" y="147.639" style="fill:#DDDDDD;" width="10.24" height="23.893"/>
<path d="M214.006,174.934h-10.24c-1.884,0-3.413-1.529-3.413-3.413v-23.893c0-1.884,1.529-3.413,3.413-3.413h10.24
	c1.884,0,3.413,1.529,3.413,3.413v23.893C217.419,173.407,215.89,174.934,214.006,174.934z M207.179,168.108h3.413v-17.067h-3.413
	V168.108z"/>
<path style="fill:#595959;" d="M173.612,195.414h9.107c2.198,0,3.98-1.782,3.98-3.98v-63.72c0-2.198-1.782-3.98-3.98-3.98h-9.107
	c-2.198,0-3.98,1.782-3.98,3.98v63.72C169.632,193.632,171.414,195.414,173.612,195.414z"/>
<path d="M182.719,198.828h-9.107c-4.077,0-7.393-3.316-7.393-7.393v-63.72c0-4.077,3.316-7.393,7.393-7.393h9.107
	c4.077,0,7.393,3.316,7.393,7.393v63.72C190.112,195.511,186.795,198.828,182.719,198.828z M173.612,127.148
	c-0.312,0-0.567,0.254-0.567,0.567v63.72c0,0.312,0.254,0.567,0.567,0.567h9.107c0.312,0,0.567-0.254,0.567-0.567v-63.72
	c0-0.312-0.254-0.567-0.567-0.567H173.612z"/>
<path style="fill:#777777;" d="M190.042,181.761h10.378c1.847,0,3.343-1.497,3.343-3.343v-37.685c0-1.847-1.497-3.343-3.343-3.343
	h-10.378c-1.847,0-3.343,1.497-3.343,3.343v37.685C186.699,180.264,188.196,181.761,190.042,181.761z"/>
<path d="M200.421,185.174h-10.378c-3.726,0-6.757-3.031-6.757-6.757v-37.685c0-3.726,3.031-6.757,6.757-6.757h10.378
	c3.726,0,6.757,3.031,6.757,6.757v37.685C207.179,182.143,204.146,185.174,200.421,185.174z M190.112,178.417h0.017H190.112z
	 M190.112,178.348h10.31l-0.07-37.617l-10.31,0.07L190.112,178.348z"/>
<path d="M125.259,174.934c-1.884,0-3.413-1.529-3.413-3.413v-23.893c0-1.884,1.529-3.413,3.413-3.413
	c1.884,0,3.413,1.529,3.413,3.413v23.893C128.672,173.407,127.143,174.934,125.259,174.934z"/>
<path d="M108.192,174.934c-1.884,0-3.413-1.529-3.413-3.413v-23.893c0-1.884,1.529-3.413,3.413-3.413
	c1.884,0,3.413,1.529,3.413,3.413v23.893C111.606,173.407,110.077,174.934,108.192,174.934z"/>
<path d="M142.326,174.934c-1.884,0-3.413-1.529-3.413-3.413v-23.893c0-1.884,1.529-3.413,3.413-3.413
	c1.884,0,3.413,1.529,3.413,3.413v23.893C145.739,173.407,144.21,174.934,142.326,174.934z"/>
<path style="fill:#777777;" d="M78.507,75.948c-32.418,0-58.697,26.279-58.697,58.697"/>
<path d="M19.809,138.06c-1.884,0-3.413-1.529-3.413-3.413c0-34.248,27.863-62.112,62.111-62.112c1.884,0,3.413,1.529,3.413,3.413
	c0,1.884-1.529,3.413-3.413,3.413c-30.484,0-55.284,24.801-55.284,55.286C23.223,136.531,21.695,138.06,19.809,138.06z"/>
<g>
</g>
<g>
</g>
<g>
</g>
<g>
</g>
<g>
</g>
<g>
</g>
<g>
</g>
<g>
</g>
<g>
</g>
<g>
</g>
<g>
</g>
<g>
</g>
<g>
</g>
<g>
</g>
<g>
</g>
</svg>
